<svg width="32" height="32" viewBox="0 0 32 32" fill="none" xmlns="http://www.w3.org/2000/svg">
<path d="M32 6.13307L24.64 0L22.576 2.43098L29.936 8.56405L32 6.13307ZM9.408 2.43098L7.36 0L0 6.11718L2.064 8.54816L9.408 2.43098ZM16.8 9.75571H14.4V19.289L22 23.8173L23.2 21.863L16.8 18.0973V9.75571ZM16 3.4002C8.048 3.4002 1.6 9.80338 1.6 17.7001C1.6 25.5968 8.032 32 16 32C23.952 32 30.4 25.5968 30.4 17.7001C30.4 9.80338 23.952 3.4002 16 3.4002ZM16 28.8222C9.808 28.8222 4.8 23.8491 4.8 17.7001C4.8 11.5511 9.808 6.57795 16 6.57795C22.192 6.57795 27.2 11.5511 27.2 17.7001C27.2 23.8491 22.192 28.8222 16 28.8222Z" fill="white"/>
</svg>
