<svg width="36" height="32" viewBox="0 0 36 32" fill="none" xmlns="http://www.w3.org/2000/svg">
<path d="M0 32H3.6C4.59 32 5.4 31.2 5.4 30.2222V14.2222C5.4 13.2444 4.59 12.4444 3.6 12.4444H0V32ZM35.694 19.3422C35.892 18.8978 36 18.4178 36 17.92V16C36 14.0444 34.38 12.4444 32.4 12.4444H22.5L24.156 4.17778C24.246 3.78667 24.192 3.36 24.012 3.00444C23.598 2.20444 23.076 1.47556 22.428 0.835556L21.6 0L10.062 11.3956C9.378 12.0711 9 12.9778 9 13.92V27.8578C9 30.1333 10.89 32 13.212 32H27.81C29.07 32 30.258 31.3422 30.906 30.2756L35.694 19.3422Z" fill="white"/>
</svg>
